<svg id="Capa_1" data-name="Capa 1" xmlns="http://www.w3.org/2000/svg" viewBox="0 0 821.27 397.28"><defs><style>.cls-1{fill:#c46f25;}.cls-2{fill:#7f5d3e;}.cls-3{fill:#f8edb1;stroke:#1d1d1b;}.cls-3,.cls-5{stroke-miterlimit:10;}.cls-4{fill:#1d1d1b;}.cls-5{fill:none;stroke:#c46f24;stroke-width:3px;}</style></defs><path class="cls-1" d="M255.14,392.12c23.46-6,171.86-62.42,172.29-63.07-3.79,1.26,6.14-27,10.87-31.2.47-.41-98.61,36.64-130.09,46-34.13,10.19-49.72,16.08-75.08,19-8.69,1-17.44,1.44-26.18,1.61-1.19,0-5.11-1-6.72-.18-8.54,4.22-12.84,27.44-6.59,33.1,1.06,1,13.48,5.05,28.15,2.67C228.68,399,248.38,393.84,255.14,392.12Z" transform="translate(-53.38 -235.9)"/><path class="cls-1" d="M438.68,547.28s39.52-17.07,46.92-19.78,103.23-34,148.38-8.63c1.59.89,11.82,6.7,16.36,17.12A173.63,173.63,0,0,0,661,557c0,6.29-35.55,12.57-58.3,2.15-8.8-4-10.59-7.2-20-12.73-17.64-10.4-36.2-13.86-52.41-14.42l-.08-2.57c0-1.74,69.85-.9,98.08,14,12.84,6.79,11.18,2,7.82-3A33.65,33.65,0,0,0,622.64,529c-19.46-9.21-74.45-24.4-179.14,21.05C438.61,552.19,438.68,547.28,438.68,547.28Z" transform="translate(-53.38 -235.9)"/><path class="cls-1" d="M508,541.3s2.37-2,14.36-1,29.58,6.47,29.58,6.47,13.89,3.33,2.57-2.28-20.09-4.81-20.09-4.81l-.1-.81s19.14-2,32,5.14,12,8.47,12,8.47.14,2.92-5.71,5.9c-7.82,4-26.92,1.33-44.13-8.75C517.87,543.44,507.2,543.93,508,541.3Z" transform="translate(-53.38 -235.9)"/><path class="cls-2" d="M421.31,397c6.32-20.89,12.54-41,18.42-61.28,1.44-4.95,1.33-10.34,2.68-15.33,5.8-21.4,20.77-34.66,40-43.86,21-10,43.63-13.91,66.33-17.73,19.62-3.29,39.12-7.33,58.6-11.39,3.76-.78,6.22-9.36,9.87-10.85,1.49-.61,4.13,5.43,5.74,5.11-.14,1.68.09,3.5-.47,5-5.9,16-18.47,23.67-34.39,26.73-7,1.35-14.25,1.81-21.32,3.06-1.78.31-4.27,1.76-4.81,3.26-6.46,17.84-12.62,35.78-18.85,53.69l1.22,1.84c7.53-1.8,13-9,20.56-11.39,1.12-.36,5.55,5.44,6.67,5.17-.07,6.32-3.29,16.53-10.1,20.45a45.46,45.46,0,0,1-16.6,5.47c-5.81.74-8,3.22-9.64,8.56-7.25,22.89-14.42,45.84-22.92,68.28-6.15,16.21-17.2,29.41-33.82,35.8-7,2.71-15.39,2.11-23.17,2.73-1.35.11-2.81-1.15-5.29-2.26,2.53-2.41,4.11-4.7,6.29-5.87,18.24-9.84,28.27-26.08,34.79-44.82,5.84-16.75,11-33.74,16.45-50.63a19.41,19.41,0,0,0,.35-3.14c-9.18.49-20.23,4.52-26.37,10.21-4.13-5.33-6.11-14.24-.62-20.2,6.83-7.43,23.4-9,32.55-12.19a8.47,8.47,0,0,0,6-6c6.49-19.42,14.11-38.32,27.85-55.16-2.19-.14-3.37-.47-4.42-.24-17,3.71-34.18,7.5-49.46,16.17a66.8,66.8,0,0,0-17.91,15.12c-11.23,13.49-15.06,19-2.65,31.54-6.76,6.5-10.08,9.59-18.39,8.34-3.6,12-7.23,23.76-10.65,35.59-5.68,19.64-11.24,39.31-16.81,59a18.27,18.27,0,0,0-.93,5.28c.1,5,4.07,7.42,8.46,5a21.43,21.43,0,0,0,6.29-4.95c6.71-8.16,13.19-16.51,19.7-24.84,1.22-1.54.13-10.11,1.52-11.44.94-.92,3.25,3.32,4.59,2.82.39,1.57,2.75,5.68,2.25,6.87-7.73,18.43-18.38,34.95-33.52,48.17A46.87,46.87,0,0,1,422,480.46c-8.74,3.48-12.92,2.07-17.78-3.79-7.34,4.59-14,10.31-21.77,13.27-14.89,5.68-26.67-1.77-29.8-17.56-2.28-11.52-1-22.85,2.47-34,.46-1.5,1-3,1.54-4.6-9.57,1.56-11.46,3.67-13.3,12.45-3.95,18.84-10.24,36.67-24.34,50.65-8,7.92-17.07,13.68-28.83,13.93-12.39.25-18.87-4.06-23.43-15.74-5.32-13.65-2.89-27.19.52-40.72.42-1.69.93-3.37,1.69-6.09-4.31,1.65-7.9,2.64-11.06,4.41-1.33.75-2.25,3.07-2.5,4.8-2.48,16.93-7.6,32.89-17.65,46.9-8,11.09-18,19.5-32,21.9-15.6,2.66-27.83-5.91-29.21-21.65-2.66-30.53,7-56.17,32-75a36.65,36.65,0,0,1,24.63-7.77c8.39.44,15,3.93,18.71,11.51,2.36,4.82,5.61,6,10.4,4.7,7.69-2.09,14.5-4.86,19.6-12,8-11.19,19.12-18.18,33.26-19.71,12.23-1.32,20.45,2.81,25.78,13.95,1.61,3.34,3.73,4.22,6.84,3.12,8.12-2.85,16.08-5.76,21.41-13.41A55.19,55.19,0,0,1,392,391C403.76,385.69,412,387.29,421.31,397Zm-49.9,59.44a63.91,63.91,0,0,0,.84,8.19c1.7,7.28,6.82,9.92,13.73,7.21,8.06-3.15,13.42-9.58,16.34-17.06,5.19-13.3,9.27-27.06,13.33-40.77,1.68-5.65-1.75-9.63-7.67-10.28-6.63-.72-12,2-16.48,6.49C378.75,423,372.85,438.85,371.41,456.46Zm-59.67-37.94c-2.29,1.63-3.77,2.55-5.09,3.66-16.65,13.95-22.43,32.72-23.43,53.47-.39,8.31,3,15.15,8.45,16.59,7.39,2,12.36-2.74,16.46-7.78,10.17-12.5,14.46-27.38,16.61-43.07.52-3.83-.89-5.39-4.46-6.45-6.45-1.91-8.1-4.55-8.28-11.47C312,422.23,311.87,421,311.74,418.52Zm-89,15.45c-4.34,4.29-8.13,7.16-10.79,10.84-10.44,14.41-16.62,30.39-16.46,48.46.05,6.36,1,12.7,7.79,15.09s11.54-2.05,16-6.47a17.1,17.1,0,0,0,1.67-2.1,85.1,85.1,0,0,0,15.7-43.37c.11-1.31-1.75-3.55-3.17-4.09-7.06-2.66-9.3-5.33-9.94-13C223.37,438.16,223.14,437,222.72,434Z" transform="translate(-53.38 -235.9)"/><path class="cls-2" d="M731.1,383.89c1.87-2.14,3-3.08,3.67-4.26,10.38-18,21.31-35.79,28-55.6,2.39-7.09,3.47-14.63,5.16-21.95a13.43,13.43,0,0,1,1-3.58c2.52-4.43,13.39-10.21,20.41-9,1.88.32,4.5,4.34,5.39,5.18-1.37,5.37-3.33,10.26-3.77,15.28-1.63,18.58-2.77,37.2-4.05,55.82a42.74,42.74,0,0,0,.25,5l1.44.45c5.28-8.46,10.95-16.7,15.76-25.42,6.67-12.05,13.8-24.14,14.62-38.34.34-5.94-1.09-12-1.32-18-.07-1.68.77-4.16,2-5,4.93-3.17,5.69-7.65,10.67-5S841.93,292,842,297.45c.14,12.93-3.79,25.1-10.29,35.83-12.79,21.14-26.46,41.79-40.54,62.1-3.31,4.78-9.27,8.48-14.8,10.78-6.31,2.63-9.45-.16-9.93-7-.74-10.56-1.23-21.13-1.85-31.7a9.4,9.4,0,0,0-1.74-5.46c-1.53,2.46-3.13,4.89-4.58,7.39-7,11.94-13.69,24-20.88,35.8a27.6,27.6,0,0,1-8.06,8.43c-7.5,4.92-13.9,2.62-16.06-6.06a148.22,148.22,0,0,1-4.56-26.44c-.76-12.11-.19-24.3-.19-36.46-10.68.06-12.69,2.38-14.72,12.52-4.74,23.78-13.85,45.49-34.15,60.32-6,4.41-13.55,7.39-20.83,9.38-10.13,2.77-18.73-.9-24.83-9.69-.69-1-1.35-2-2.1-3.09-6.3,5.78-11.89,11.93-18.51,16.64A55,55,0,0,1,575.59,439c-11.16,2.88-18.87-3.91-17.94-15.42a73.81,73.81,0,0,1,3.84-16.67c13.17-40.58,26.52-81.1,39.77-121.66,1.59-4.88,3.68-8.37,9.14-10.74,11.17-4.86,15.52-15.38,17.76-26.67.7-3.51-2.84-11.24,1.7-10.56s9.81,8.48,9.69,12.6c-.31,10.68-4.06,20.33-8.78,29.68-5.89,11.69-13,22.89-17.63,35.05-7.89,20.76-14.37,42.06-21.23,63.21-3.43,10.56-6.54,21.24-9.42,32a7.53,7.53,0,0,0,1.61,6.13c.95,1,4.42,1,5.58.06,6.31-5.23,12.7-10.52,18.08-16.65,2-2.22,1.3-6.82,1.58-10.36,2-25.69,12.13-47.42,32-64.1,9.07-7.62,19.62-11.8,31.77-11,9,.58,15.22,5.19,18.61,13.27,1.54,3.66,3.54,4.74,7.3,4.53,7.89-.45,12.31-3.71,14.49-11.37,3.74-13.17,8.77-25.57,21.74-23.73.89.13,7.83,8,7.51,8.55-7.43,11.56-9.56,24.69-10.81,37.89-1.12,11.77-1.14,23.65-1.58,35.49A39.57,39.57,0,0,0,731.1,383.89Zm-69.69-58.15c-3,2.54-4.77,4-6.45,5.51-12.4,11.36-18.76,26.17-22.59,42a67.06,67.06,0,0,0-1.45,23.36c1.3,10.82,10.66,14.06,19.48,7.49a37.93,37.93,0,0,0,7.5-7.63c10-13.39,14.87-28.81,17.22-45.18.47-3.24-.79-4.37-3.7-5.26-8.7-2.67-10.09-4.81-10-13.95C661.42,330.49,661.41,328.91,661.41,325.74Z" transform="translate(-53.38 -235.9)"/><path class="cls-2" d="M129.42,440.94c-4,2.12-10,2.71-14.06,4.82-4.9,2.58-10.39-.62-10.33-6.15.08-6.1,8.23-7.67,13.08-11.1s10.68-5.8,15.75-9.12c2.51-1.63,5.18-4,6.27-6.64,6.9-16.88,13.38-33.93,20-50.92.32-.81.51-1.66,1.07-3.52-3,.88-5.37,1.38-7.57,2.24-13.52,5.27-27.35,9.91-40.39,16.18-11.34,5.45-20.27,14.18-24.61,26.59-5.16,14.77-5.53,17.69,9.3,27.52-1.6.73-4.5,4.05-6,5-14.28,8.61-29.27.58-32-15.93-2.8-17.06,3.17-31.41,14.3-43.92C87.5,361,105.08,353.55,123.6,347.75c23.08-7.22,46.45-13.69,69.1-22.08,10.68-3.95,18.18-11.94,28.11-17.93,1.18-.71.43-5.8,1.61-6.52.59.18,4.9,5,5.49,5.2-.7,4-.73,8.21-2.23,11.85-5.85,14.19-17.7,22.12-31,28.3a24,24,0,0,1-5.47,2.23c-7.11,1.34-10.25,5.92-12,12.6-4.1,15.55-8.7,31-13.09,46.44l1.29,1.79c8.5-2.38,13.77-10.53,22.27-12.91.72-.2,4.66,5.38,5.39,5.17,1.77,7.44-2.53,17.85-9.82,21.79A57,57,0,0,1,165.71,430c-5.3.86-7.25,3.23-8.43,7.89-4.77,18.94-9.43,37.92-14.74,56.72-5.38,19.06-12.2,37.65-25.38,53C107,559.39,94.72,568,78.25,567.26c-3.72-.17-7.63-2.54-10.83-4.78-1.24-.88-1.19-4.26-.85-6.36.11-.7,2.94-1.29,4.56-1.37,13.27-.67,20.91-9.34,27.26-19.45,10.51-16.75,15.55-35.74,21.37-54.37,3.64-11.62,7.06-23.32,10.52-35a19.13,19.13,0,0,0,.4-3.57Z" transform="translate(-53.38 -235.9)"/><path class="cls-2" d="M865.65,299.29a9,9,0,0,1,0,18,8.79,8.79,0,0,1-9-8.71A9,9,0,0,1,865.65,299.29Zm-6.13,10.07c-.22,3.48,2.78,5,6.46,5.07,3.85.08,6-2.42,5.76-6.2s-2.3-6.25-6.54-6.17S859.59,304.55,859.52,309.36Z" transform="translate(-53.38 -235.9)"/><path class="cls-2" d="M859.52,309.36c.07-4.81,1.56-7.21,5.68-7.3s6.33,2.31,6.54,6.17-1.91,6.28-5.76,6.2C862.3,314.36,859.3,312.84,859.52,309.36Zm10.3-1.08-4.47-3.3c-.82,1.17-2.11,2.29-2.26,3.54-.1.76,1.62,2.49,2.44,2.43C866.73,310.87,867.85,309.59,869.82,308.28Z" transform="translate(-53.38 -235.9)"/><path class="cls-2" d="M869.82,308.28c-2,1.31-3.09,2.59-4.29,2.67-.82.06-2.54-1.67-2.44-2.43.15-1.25,1.44-2.37,2.26-3.54Z" transform="translate(-53.38 -235.9)"/><path class="cls-3" d="M415.92,391.84c6.32-20.88,12.54-41,18.42-61.27,1.44-4.95,1.33-10.35,2.68-15.34,5.8-21.39,20.77-34.66,40-43.85,21-10.05,43.62-13.92,66.32-17.73,19.62-3.29,39.12-7.34,58.6-11.39,3.76-.78,7.14-3.26,10.79-4.75a25.44,25.44,0,0,1,4.82-1c-.14,1.68.09,3.5-.47,5-5.9,16-18.47,23.67-34.39,26.73-7,1.35-14.25,1.81-21.32,3.05-1.78.32-4.27,1.76-4.81,3.27-6.46,17.83-12.62,35.78-18.85,53.69l1.22,1.84,26-6.22c2,5.35-2,16.52-8.82,20.45a45.65,45.65,0,0,1-16.6,5.47c-5.81.74-8,3.22-9.64,8.56-7.25,22.89-14.42,45.84-22.92,68.27-6.15,16.22-17.2,29.42-33.82,35.81-7,2.71-15.39,2.1-23.17,2.73-1.35.11-2.81-1.16-5.29-2.26,2.53-2.42,4.11-4.7,6.29-5.88,18.24-9.83,28.27-26.07,34.8-44.81,5.83-16.76,11-33.74,16.44-50.63a19.56,19.56,0,0,0,.35-3.14c-9.18.48-15.88,5.06-22,10.75-4.13-5.33-3.05-13,2.44-19,6.83-7.42,16-10.78,25.14-13.93a8.47,8.47,0,0,0,6-6.05c6.49-19.41,14.11-38.31,27.85-55.15-2.19-.14-3.37-.48-4.42-.25-17,3.72-34.18,7.51-49.46,16.17a66.84,66.84,0,0,0-17.91,15.13c-11.23,13.49-10.33,23.7,2.07,36.27-6.76,6.5-14.8,4.85-23.11,3.61-3.6,12-7.23,23.75-10.65,35.58-5.68,19.64-11.24,39.32-16.81,59a18.21,18.21,0,0,0-.93,5.28c.1,5,4.07,7.42,8.46,5a21.43,21.43,0,0,0,6.29-5c6.71-8.16,13.19-16.51,19.7-24.84,1.22-1.55,2-3.51,3.35-4.85.94-.91,2.62-1.07,4-1.56.38,1.57,1.54,3.46,1,4.66-7.73,18.42-18.38,34.95-33.52,48.16a46.9,46.9,0,0,1-13.38,7.76c-8.74,3.48-12.92,2.07-17.78-3.8-7.34,4.59-14,10.32-21.77,13.28-14.89,5.68-26.67-1.78-29.79-17.56-2.29-11.52-1-22.85,2.46-34,.46-1.5,1-3,1.54-4.6-9.57,1.56-11.46,3.68-13.3,12.45-3.95,18.85-10.24,36.68-24.34,50.66-8,7.91-17.07,13.68-28.83,13.92-12.39.26-18.87-4-23.43-15.74-5.32-13.64-2.89-27.19.52-40.72.42-1.69.93-3.36,1.69-6.08-4.31,1.64-7.9,2.63-11.06,4.41-1.33.75-2.25,3.07-2.5,4.8-2.48,16.93-7.6,32.89-17.65,46.89-8,11.1-18,19.51-32,21.91-15.6,2.66-27.83-5.91-29.21-21.66-2.66-30.53,7-56.16,32-75a36.65,36.65,0,0,1,24.63-7.77c8.39.44,15,3.93,18.71,11.51,2.36,4.82,5.61,6,10.4,4.7,7.69-2.09,14.5-4.86,19.6-12,8-11.19,19.12-18.18,33.26-19.71,12.23-1.32,20.45,2.81,25.78,13.94,1.61,3.35,3.73,4.23,6.84,3.13,8.12-2.86,16.08-5.76,21.41-13.41a55.12,55.12,0,0,1,22.9-19.08C398.37,380.52,406.57,382.12,415.92,391.84ZM366,451.29a63.56,63.56,0,0,0,.84,8.18c1.7,7.28,6.82,9.93,13.73,7.22,8.06-3.15,13.42-9.58,16.34-17.06,5.19-13.31,9.27-27.06,13.33-40.77,1.68-5.65-1.75-9.63-7.67-10.28-6.63-.73-12,2-16.48,6.49C373.36,417.85,367.46,433.68,366,451.29Zm-59.67-37.94c-2.29,1.63-3.77,2.55-5.09,3.65-16.65,13.95-22.43,32.73-23.43,53.48-.39,8.31,3.05,15.15,8.45,16.59,7.39,2,12.36-2.74,16.46-7.78,10.17-12.51,14.46-27.39,16.61-43.08.52-3.82-.89-5.39-4.46-6.44-6.45-1.91-8.1-4.55-8.28-11.48C306.58,417.06,306.48,415.82,306.35,413.35Zm-89,15.45c-4.34,4.29-8.13,7.16-10.79,10.83-10.44,14.42-16.62,30.4-16.46,48.47,0,6.36,1,12.69,7.79,15.08s11.54-2,15.95-6.47a17.79,17.79,0,0,0,1.67-2.09,85,85,0,0,0,15.7-43.37c.11-1.31-1.75-3.56-3.17-4.09-7.06-2.67-9.3-5.33-9.94-13C218,433,217.75,431.79,217.33,428.8Z" transform="translate(-53.38 -235.9)"/><path class="cls-3" d="M725.71,378.71c1.87-2.13,3-3.07,3.67-4.26,10.38-18,21.31-35.78,28-55.6,2.39-7.09,3.47-14.62,5.16-22a13.35,13.35,0,0,1,1-3.57c3.19-5.62,21.54-7.83,25.8-3.87-1.37,5.38-3.33,10.27-3.77,15.29-1.63,18.58-2.77,37.2-4.05,55.81a42.8,42.8,0,0,0,.25,5.05l1.44.45c5.28-8.46,10.95-16.71,15.76-25.42,6.67-12.05,13.8-24.14,14.62-38.34.34-5.95-1.09-12-1.32-18-.07-1.67.77-4.16,2-5,4.93-3.17,10.4-2.87,15.38-.22s6.86,7.7,6.91,13.15c.14,12.93-3.79,25.1-10.29,35.83-12.79,21.14-26.46,41.79-40.54,62.1C782.46,395,776.5,398.69,771,401c-6.31,2.63-9.45-.16-9.93-7-.74-10.55-1.23-21.13-1.85-31.69a9.43,9.43,0,0,0-1.74-5.47c-1.53,2.47-3.13,4.89-4.58,7.4-7,11.94-13.69,24-20.88,35.79a27.49,27.49,0,0,1-8.06,8.43c-7.49,4.93-13.9,2.63-16.06-6.05a148.22,148.22,0,0,1-4.56-26.44c-.76-12.11-.19-24.31-.19-36.46-10.68.06-12.69,2.38-14.72,12.52-4.74,23.78-13.85,45.49-34.15,60.32-6,4.41-13.55,7.38-20.83,9.38-10.13,2.77-18.73-.9-24.83-9.7-.69-1-1.35-2-2.1-3.08-6.3,5.78-11.89,11.92-18.51,16.63a54.78,54.78,0,0,1-17.78,8.3c-11.16,2.87-18.87-3.92-17.94-15.42a74,74,0,0,1,3.84-16.68c13.17-40.58,26.52-81.1,39.77-121.65,1.59-4.88,3.68-8.37,9.14-10.75,11.17-4.86,15.53-15.37,17.76-26.66.7-3.51,1.26-6.35,5.79-5.67s5.72,3.59,5.6,7.71c-.31,10.68-4.06,20.33-8.78,29.68-5.89,11.69-13,22.89-17.63,35-7.89,20.76-14.37,42.06-21.23,63.2-3.43,10.57-6.54,21.25-9.42,32a7.53,7.53,0,0,0,1.61,6.13c.95,1,4.42,1,5.58.06,6.31-5.24,12.7-10.52,18.08-16.65,2-2.22,1.3-6.83,1.58-10.36,2-25.69,12.13-47.42,32-64.11,9.07-7.61,19.62-11.79,31.77-11,9,.58,15.22,5.19,18.61,13.27,1.54,3.66,3.54,4.74,7.3,4.53,7.89-.45,12.31-3.72,14.49-11.37,3.74-13.17,14.16-20.4,27.13-18.56.89.13,2.44,2.86,2.12,3.37-7.43,11.57-9.56,24.7-10.81,37.9-1.12,11.77-1.14,23.65-1.58,35.49A39.28,39.28,0,0,0,725.71,378.71ZM656,320.56c-3,2.54-4.77,4-6.45,5.51-12.4,11.37-18.76,26.18-22.59,42a67.07,67.07,0,0,0-1.45,23.36c1.3,10.83,10.66,14.07,19.48,7.49a37.62,37.62,0,0,0,7.5-7.62c10-13.39,14.87-28.81,17.22-45.18.47-3.25-.79-4.37-3.7-5.26-8.7-2.67-10.09-4.81-10-13.95C656,325.32,656,323.74,656,320.56Z" transform="translate(-53.38 -235.9)"/><path class="cls-3" d="M124,435.77q-6,3.18-12,6.36c-4.91,2.59-7.09,1.45-7-4.08a17.84,17.84,0,0,1,7.74-14.71c4.94-3.48,10.68-5.81,15.75-9.12,2.51-1.64,5.19-4,6.27-6.65,6.9-16.87,13.38-33.92,20-50.91.32-.81.51-1.66,1.07-3.53-3,.89-5.37,1.38-7.57,2.24-13.52,5.28-27.35,9.91-40.39,16.19C96.5,377,87.57,385.74,83.23,398.15c-5.16,14.77-3,21,11.86,30.8a45.28,45.28,0,0,0-4.79,2.22,23.86,23.86,0,0,1-35.74-16.48c-2.8-17.06,3.17-31.41,14.3-43.93,13.25-14.9,30.83-22.38,49.35-28.18,23.08-7.22,46.45-13.69,69.1-22.08,10.68-3.95,20-11.63,29.9-17.62l3.54-2.17,1.77.54c-.7,4-.73,8.21-2.23,11.84-5.85,14.2-17.7,22.12-31,28.31a24,24,0,0,1-5.47,2.23c-7.11,1.34-10.25,5.92-12,12.6-4.1,15.55-8.7,31-13.09,46.44l1.29,1.78,27.66-7.73c1.77,7.43-2.53,17.85-9.82,21.79a57,57,0,0,1-17.52,6.33c-5.3.86-7.25,3.24-8.43,7.89-4.77,18.95-9.43,37.93-14.74,56.72-5.38,19.07-12.2,37.66-25.38,53-10.17,11.8-22.44,20.42-38.91,19.68-3.72-.17-7.63-2.54-10.83-4.78-1.24-.88-1.19-4.26-.85-6.37.11-.69,2.94-1.28,4.56-1.36C79,548.9,86.65,540.24,93,530.13c10.51-16.76,15.55-35.74,21.37-54.37,3.64-11.63,7.06-23.32,10.52-35a18.93,18.93,0,0,0,.4-3.56Z" transform="translate(-53.38 -235.9)"/><path class="cls-3" d="M860.26,294.12a9,9,0,0,1,0,18,8.79,8.79,0,0,1-9-8.71A9,9,0,0,1,860.26,294.12Zm-6.13,10.07c-.22,3.48,2.78,5,6.46,5.07,3.85.08,6-2.43,5.76-6.2s-2.3-6.25-6.54-6.17S854.2,299.38,854.13,304.19Z" transform="translate(-53.38 -235.9)"/><path class="cls-3" d="M854.13,304.19c.07-4.81,1.56-7.22,5.68-7.3s6.33,2.3,6.54,6.17-1.91,6.28-5.76,6.2C856.91,309.19,853.91,307.67,854.13,304.19Zm10.3-1.09L860,299.81c-.82,1.17-2.11,2.28-2.26,3.54-.1.75,1.62,2.48,2.44,2.43C861.34,305.7,862.46,304.42,864.43,303.1Z" transform="translate(-53.38 -235.9)"/><path class="cls-3" d="M864.43,303.1c-2,1.32-3.09,2.6-4.29,2.68-.82.05-2.54-1.68-2.44-2.43.15-1.26,1.44-2.37,2.26-3.54Z" transform="translate(-53.38 -235.9)"/><path class="cls-1" d="M786,489.2s14.15-29.53,10.75-39c-2-5.54-2.66-8-12.49-11.28-28.54-9.52-230.07,18.49-395.61,68.83-119.51,36.35-226.88,54-237.25,55.54,0,0,3.55,1.52,15.73,3s379.44-74.07,379.44-74.07S771.82,446.59,786,489.2Z" transform="translate(-53.38 -235.9)"/><path class="cls-1" d="M434.72,259.4c-7,5.53-17,13-29.49,20.93-11.46,7.31-21.9,14-33.65,19.08-34.27,14.88-74.63,14-96.27,3.93-11.8-5.48-15.73-10.14-15.73-10.14-6.64-6-13.63-13.24-15.6-18.37a78.62,78.62,0,0,0-9.13-17.39c.16-5,38.53-7.36,55.8,1.52,6.68,3.43,19.76,14.49,27.39,18.13,21.08,10.06,43.83,8.77,65.38,2.54l.57.76c-2.19,9.25-96.64,17.2-115.91-3.11-4.83-2.84-6.26-1.52-6.9-.8s4.91,6.09,6.9,7.37c7.32,4.68,18.9,10.68,23.39,11.83,9.48,2.41,28.53,3,40.16,2.71,50.09-1.24,99.85-43.62,102.52-41.27C435,257.91,434.59,259.3,434.72,259.4Z" transform="translate(-53.38 -235.9)"/><path class="cls-1" d="M370.06,273.66s-2,2.09-12.45,1.41-25.91-5.55-25.91-5.55-12.17-2.89-2.16,2.34S347.16,276,347.16,276l.11.8s-16.57,2.52-28-4.16-10.69-8-10.69-8-.22-2.89,4.77-6c6.66-4.15,23.34-2.09,38.63,7.38C361.4,271.84,370.66,271.05,370.06,273.66Z" transform="translate(-53.38 -235.9)"/><path class="cls-4" d="M163.71,605.51a44.39,44.39,0,0,1,7.25-.59c4.89,0,8.39,1.21,10.7,3.47s3.74,5.43,3.74,9.88S184,626.46,181.6,629s-6.58,4-11.69,4a54.52,54.52,0,0,1-6.2-.3ZM168,629.94a22.74,22.74,0,0,0,3.43.17c7.3,0,11.24-4.24,11.24-11.7,0-6.53-3.48-10.64-10.68-10.64a19.71,19.71,0,0,0-4,.36Z" transform="translate(-53.38 -235.9)"/><path class="cls-4" d="M197.12,604.66v28h-4.31v-28Z" transform="translate(-53.38 -235.9)"/><path class="cls-4" d="M228.38,631.51a26.91,26.91,0,0,1-8.84,1.52c-4.37,0-8-1.06-10.78-3.65a13.78,13.78,0,0,1-4-10.26c0-8.23,5.93-14.26,15.6-14.26a19,19,0,0,1,7.22,1.26l-.93,2.91a15.29,15.29,0,0,0-6.38-1.18c-7,0-11.58,4.17-11.58,11.09s4.38,11.14,11.13,11.14a12.53,12.53,0,0,0,4.27-.74v-8.51h-5.39V617.6h9.7Z" transform="translate(-53.38 -235.9)"/><path class="cls-4" d="M240.24,604.66v28h-4.31v-28Z" transform="translate(-53.38 -235.9)"/><path class="cls-4" d="M253.18,607.9h-7.55v-3.24H265v3.24h-8.62v24.79h-3.23Z" transform="translate(-53.38 -235.9)"/><path class="cls-4" d="M273.11,624.07l-3.25,8.62h-4.5l10.93-28h5l11,28h-4.62l-3.37-8.62Zm10.33-3.24-3.12-7.91c-.68-1.8-1.16-3.44-1.62-5h-.11c-.46,1.61-.95,3.29-1.57,5l-3.1,8Z" transform="translate(-53.38 -235.9)"/><path class="cls-4" d="M296.3,604.66h3.23v24.8h11.86v3.23H296.3Z" transform="translate(-53.38 -235.9)"/><path class="cls-4" d="M333,605.46a37.31,37.31,0,0,1,6.88-.6c3.79,0,6.3.72,8,2.27a6.9,6.9,0,0,1,2.17,5.25,7.3,7.3,0,0,1-5.22,7v.22c2.2.73,3.53,2.71,4.23,5.54,1,3.83,1.63,6.44,2.22,7.51h-3.86a34,34,0,0,1-1.9-6.55c-.85-3.75-2.41-5.2-5.79-5.31h-3.52v11.86H333Zm4.31,12.14h3.64c3.81,0,6.23-2.08,6.23-5.24,0-3.59-2.59-5.15-6.35-5.15a15.33,15.33,0,0,0-3.52.31Z" transform="translate(-53.38 -235.9)"/><path class="cls-4" d="M373.91,619.76H362.05v9.7H375v3.23H358.82v-28h15.09v3.24H363.13v8.62h10.78Z" transform="translate(-53.38 -235.9)"/><path class="cls-4" d="M382.8,628.4a12.51,12.51,0,0,0,6.41,1.79c3.66,0,5.82-1.9,5.82-4.7,0-2.56-1.5-4.07-5.25-5.46-4.54-1.6-7.35-4-7.35-7.84,0-4.29,3.6-7.49,9-7.49a12.79,12.79,0,0,1,6.12,1.34l-1,2.92a10.58,10.58,0,0,0-5.24-1.31c-3.82,0-5.26,2.25-5.26,4.13,0,2.57,1.69,3.83,5.53,5.3,4.71,1.84,7.08,4.09,7.08,8.14,0,4.23-3.14,8-9.72,8a14.37,14.37,0,0,1-7.1-1.8Z" transform="translate(-53.38 -235.9)"/><path class="cls-4" d="M411.63,607.9h-7.54v-3.24h18.33v3.24h-7.55v24.79h-3.24Z" transform="translate(-53.38 -235.9)"/><path class="cls-4" d="M429.93,624.07l-2.81,8.62h-3.89l9.45-28H437l9.49,28h-4l-2.92-8.62Zm8.94-3.24-2.7-7.91c-.59-1.8-1-3.44-1.4-5h-.1c-.39,1.61-.81,3.29-1.35,5l-2.69,8Z" transform="translate(-53.38 -235.9)"/><path class="cls-4" d="M455.83,604.66V621c0,6.16,2.46,8.78,5.82,8.78,3.65,0,6-2.71,6-8.78V604.66h3.23v16.12c0,8.49-4,12-9.41,12-5.08,0-8.91-3.22-8.91-11.8V604.66Z" transform="translate(-53.38 -235.9)"/><path class="cls-4" d="M478.47,605.46a52,52,0,0,1,8.13-.6c4.49,0,7.45.72,9.49,2.27a6.45,6.45,0,0,1,2.56,5.25c0,3.63-2.74,6-6.17,7v.22c2.48.73,4,2.71,4.76,5.54,1.07,3.83,1.84,6.44,2.49,7.51h-4.34a32,32,0,0,1-2.13-6.55c-1-3.75-2.72-5.2-6.51-5.31h-4v11.86h-4.31Zm4.31,12.14H487c4.37,0,7.14-2.08,7.14-5.24,0-3.59-3-5.15-7.27-5.15a20.27,20.27,0,0,0-4.05.31Z" transform="translate(-53.38 -235.9)"/><path class="cls-4" d="M510.18,624.07l-2.8,8.62h-3.87l9.41-28h4.3l9.45,28h-4l-2.91-8.62Zm8.91-3.24-2.69-7.91c-.59-1.8-1-3.44-1.4-5h-.1c-.39,1.61-.81,3.29-1.34,5l-2.68,8Z" transform="translate(-53.38 -235.9)"/><path class="cls-4" d="M533.45,632.69v-28h4.27l8.52,14.17A83.12,83.12,0,0,1,551,628l.09-.05c-.31-3.74-.38-7.16-.38-11.5V604.66h3.24v28h-4l-8.45-14.2a95,95,0,0,1-5-9.39l-.11,0c.2,3.56.25,6.93.25,11.57v12Z" transform="translate(-53.38 -235.9)"/><path class="cls-4" d="M567.94,607.9h-8.62v-3.24H579.8v3.24h-8.63v24.79h-3.23Z" transform="translate(-53.38 -235.9)"/><path class="cls-4" d="M624,620.73c-.19-3.79-.41-8.39-.39-11.75h-.16q-1.26,4.77-3.08,10.4L616,632.69h-2.39l-4-13.07c-1.17-3.87-2.12-7.39-2.81-10.64h-.14c-.09,3.39-.24,7.93-.48,12l-.65,11.69h-3l1.74-28h4.07L612.49,618c1,3.38,1.84,6.41,2.48,9.29h.1c.65-2.79,1.51-5.83,2.61-9.29l4.39-13.35h4.07l1.56,28h-3.15Z" transform="translate(-53.38 -235.9)"/><path class="cls-4" d="M652,619.76H639.09v9.7h14v3.23H634.77v-28H653.1v3.24H640.16v8.62H652Z" transform="translate(-53.38 -235.9)"/><path class="cls-4" d="M661.72,632.69v-28h3.2l8.52,14.17a83.12,83.12,0,0,1,4.74,9.13l.09-.05c-.31-3.74-.38-7.16-.38-11.5V604.66h3.24v28h-2.91l-8.45-14.2a95,95,0,0,1-4.95-9.39l-.12,0c.21,3.56.26,6.93.26,11.57v12Z" transform="translate(-53.38 -235.9)"/><path class="cls-4" d="M694.06,604.66V621c0,6.16,2.69,8.78,6.34,8.78,4,0,6.6-2.71,6.6-8.78V604.66h3.23v16.12c0,8.49-4.25,12-10,12-5.37,0-9.43-3.22-9.43-11.8V604.66Z" transform="translate(-53.38 -235.9)"/><line class="cls-5" x1="12.3" y1="385.38" x2="87.63" y2="385.38"/><line class="cls-5" x1="677.15" y1="385.12" x2="752.48" y2="385.12"/></svg>